# xmcd CD database file
#
# Track frame offsets:
#	150
#	26009
#	49587
#	69109
#
# Disc length: 1045 seconds
#
# Revision: 0
# Processed by: cddbd v1.5.1PL0 Copyright (c) Steve Scherf et al.
# Submitted via: CDex 1.51
#
DISCID=28041304
DTITLE=DearFaith - mo si mo -もしも-
DYEAR=2003
DGENRE=Vocal
TTITLE0=もしも
TTITLE1=ナツマツリ-再会-
TTITLE2=LALE
TTITLE3=ボーナストラック
EXTD=YEAR: 2003
EXTT0=
EXTT1=
EXTT2=
EXTT3=
PLAYORDER=
